# xmcd
#
# Track frame offsets: 
#        150
#        13725
#        30597
#        46364
#        60582
#
# Disc length: 1033 seconds
#
# Revision: 0
# Processed by: cddbd v1.5.1PL0 Copyright (c) Steve Scherf et al.
# Submitted via: ExactAudioCopy v0.95b2
#
DISCID=37040705
DTITLE=Boogie Healers - Boogie For You
DYEAR=2003
DGENRE=Rock and Roll
TTITLE0=Glad You're Mine
TTITLE1=Soul Rockin'
TTITLE2=Jump Your Blues Away
TTITLE3=Put Your Whammy On Me
TTITLE4=Travelling Riverside Blues
EXTD=
EXTT0=
EXTT1=
EXTT2=
EXTT3=
EXTT4=
PLAYORDER=
